<svg width="50" height="50" viewBox="0 0 50 50" fill="none" xmlns="http://www.w3.org/2000/svg">
<path d="M31.25 45.8332V37.4998C31.5398 34.89 30.7915 32.2709 29.1667 30.2082C35.4167 30.2082 41.6667 26.0415 41.6667 18.7498C41.8333 16.1457 41.1042 13.5832 39.5833 11.4582C40.1667 9.06234 40.1667 6.56234 39.5833 4.1665C39.5833 4.1665 37.5 4.1665 33.3333 7.2915C27.8333 6.24984 22.1667 6.24984 16.6667 7.2915C12.5 4.1665 10.4167 4.1665 10.4167 4.1665C9.79167 6.56234 9.79167 9.06234 10.4167 11.4582C8.89974 13.5746 8.16349 16.1515 8.33334 18.7498C8.33334 26.0415 14.5833 30.2082 20.8333 30.2082C20.0208 31.229 19.4167 32.3957 19.0625 33.6457C18.7083 34.8957 18.6042 36.2082 18.75 37.4998M18.75 37.4998V45.8332M18.75 37.4998C9.35417 41.6665 8.33334 33.3332 4.16667 33.3332" stroke="#8B5CF6" stroke-width="2" stroke-linecap="round" stroke-linejoin="round"/>
</svg>
