<svg width="50" height="50" viewBox="0 0 50 50" fill="none" xmlns="http://www.w3.org/2000/svg">
<path d="M33.3333 16.6665C36.6485 16.6665 39.828 17.9835 42.1722 20.3277C44.5164 22.6719 45.8333 25.8513 45.8333 29.1665V43.7498H37.5V29.1665C37.5 28.0614 37.061 27.0016 36.2796 26.2202C35.4982 25.4388 34.4384 24.9998 33.3333 24.9998C32.2283 24.9998 31.1684 25.4388 30.387 26.2202C29.6056 27.0016 29.1667 28.0614 29.1667 29.1665V43.7498H20.8333V29.1665C20.8333 25.8513 22.1503 22.6719 24.4945 20.3277C26.8387 17.9835 30.0181 16.6665 33.3333 16.6665Z" stroke="#8B5CF6" stroke-width="2" stroke-linecap="round" stroke-linejoin="round"/>
<path d="M12.5 18.7498H4.16666V43.7498H12.5V18.7498Z" stroke="#8B5CF6" stroke-width="2" stroke-linecap="round" stroke-linejoin="round"/>
<path d="M8.33332 12.4998C10.6345 12.4998 12.5 10.6344 12.5 8.33317C12.5 6.03198 10.6345 4.1665 8.33332 4.1665C6.03214 4.1665 4.16666 6.03198 4.16666 8.33317C4.16666 10.6344 6.03214 12.4998 8.33332 12.4998Z" stroke="#8B5CF6" stroke-width="2" stroke-linecap="round" stroke-linejoin="round"/>
</svg>
