<svg width="134" height="23" viewBox="0 0 134 23" fill="none" xmlns="http://www.w3.org/2000/svg">
<path d="M10.2498 17.016L0.525799 12.726V10.35L10.2498 6.06V8.612L2.4838 12V11.098L10.2498 14.464V17.016ZM70.481 17.5V14.64H73.011V17.5H70.481ZM82.9479 17.764C81.8039 17.764 80.7773 17.4927 79.8679 16.95C78.9733 16.3927 78.2619 15.6447 77.7339 14.706C77.2206 13.7673 76.9639 12.7113 76.9639 11.538C76.9639 10.3647 77.2279 9.30867 77.7559 8.37C78.2839 7.43133 78.9953 6.69067 79.8899 6.148C80.7846 5.60533 81.7966 5.334 82.9259 5.334C83.8793 5.334 84.7226 5.52467 85.4559 5.906C86.1893 6.28733 86.7686 6.81533 87.1939 7.49L86.8199 8.062V0.845999H89.2839V17.5H86.9299V15.08L87.2159 15.542C86.8053 16.2607 86.2186 16.8107 85.4559 17.192C84.6933 17.5733 83.8573 17.764 82.9479 17.764ZM83.1899 15.454C83.8793 15.454 84.4953 15.2853 85.0379 14.948C85.5953 14.6107 86.0279 14.1487 86.3359 13.562C86.6586 12.9607 86.8199 12.286 86.8199 11.538C86.8199 10.79 86.6586 10.1227 86.3359 9.536C86.0279 8.94933 85.5953 8.48733 85.0379 8.15C84.4953 7.81267 83.8793 7.644 83.1899 7.644C82.5006 7.644 81.8773 7.81267 81.3199 8.15C80.7626 8.48733 80.3299 8.94933 80.0219 9.536C79.7139 10.1227 79.5599 10.79 79.5599 11.538C79.5599 12.286 79.7139 12.9607 80.0219 13.562C80.3299 14.1487 80.7553 14.6107 81.2979 14.948C81.8553 15.2853 82.4859 15.454 83.1899 15.454ZM98.2142 17.764C97.0262 17.764 95.9702 17.4927 95.0462 16.95C94.1369 16.3927 93.4256 15.6447 92.9122 14.706C92.3989 13.7527 92.1422 12.6893 92.1422 11.516C92.1422 10.3133 92.3989 9.25 92.9122 8.326C93.4402 7.402 94.1442 6.676 95.0242 6.148C95.9042 5.60533 96.9016 5.334 98.0162 5.334C98.9109 5.334 99.7102 5.488 100.414 5.796C101.118 6.104 101.712 6.52933 102.196 7.072C102.68 7.6 103.047 8.20867 103.296 8.898C103.56 9.58733 103.692 10.3207 103.692 11.098C103.692 11.2887 103.685 11.4867 103.67 11.692C103.656 11.8973 103.626 12.088 103.582 12.264H94.1002V10.284H102.174L100.986 11.186C101.133 10.4673 101.082 9.82933 100.832 9.272C100.598 8.7 100.231 8.25267 99.7322 7.93C99.2482 7.59267 98.6762 7.424 98.0162 7.424C97.3562 7.424 96.7696 7.59267 96.2562 7.93C95.7429 8.25267 95.3469 8.722 95.0682 9.338C94.7896 9.93933 94.6796 10.6727 94.7382 11.538C94.6649 12.3447 94.7749 13.0487 95.0682 13.65C95.3762 14.2513 95.8016 14.7207 96.3442 15.058C96.9016 15.3953 97.5322 15.564 98.2362 15.564C98.9549 15.564 99.5636 15.4027 100.062 15.08C100.576 14.7573 100.979 14.3393 101.272 13.826L103.296 14.816C103.062 15.3733 102.695 15.8793 102.196 16.334C101.712 16.774 101.126 17.126 100.436 17.39C99.7616 17.6393 99.0209 17.764 98.2142 17.764ZM109.798 17.5L105.134 5.598H107.84L111.426 15.3H110.436L114.022 5.598H116.75L112.064 17.5H109.798ZM123.759 17.016V14.464L131.525 11.098V12L123.759 8.612V6.06L133.505 10.35V12.726L123.759 17.016Z" fill="#8B5CF6"/>
<path d="M19.5207 22.34C19.2274 22.34 18.9341 22.3107 18.6407 22.252C18.3621 22.208 18.1054 22.1347 17.8707 22.032V19.898C18.0467 19.942 18.2594 19.9787 18.5087 20.008C18.7581 20.052 19.0001 20.074 19.2347 20.074C19.9241 20.074 20.4301 19.92 20.7527 19.612C21.0901 19.3187 21.3907 18.864 21.6547 18.248L22.4467 16.444L22.4027 18.534L17.2547 5.598H19.9167L23.7227 15.52H22.8207L26.6047 5.598H29.2887L24.0307 18.798C23.7521 19.502 23.4001 20.118 22.9747 20.646C22.5641 21.1887 22.0727 21.6067 21.5007 21.9C20.9434 22.1933 20.2834 22.34 19.5207 22.34ZM34.8841 17.5L30.2201 5.598H32.9261L36.5121 15.3H35.5221L39.1081 5.598H41.8361L37.1501 17.5H34.8841ZM49.339 17.764C48.151 17.764 47.095 17.4927 46.171 16.95C45.2617 16.3927 44.5503 15.6447 44.037 14.706C43.5237 13.7527 43.267 12.6893 43.267 11.516C43.267 10.3133 43.5237 9.25 44.037 8.326C44.565 7.402 45.269 6.676 46.149 6.148C47.029 5.60533 48.0263 5.334 49.141 5.334C50.0357 5.334 50.835 5.488 51.539 5.796C52.243 6.104 52.837 6.52933 53.321 7.072C53.805 7.6 54.1717 8.20867 54.421 8.898C54.685 9.58733 54.817 10.3207 54.817 11.098C54.817 11.2887 54.8097 11.4867 54.795 11.692C54.7803 11.8973 54.751 12.088 54.707 12.264H45.225V10.284H53.299L52.111 11.186C52.2577 10.4673 52.2063 9.82933 51.957 9.272C51.7223 8.7 51.3557 8.25267 50.857 7.93C50.373 7.59267 49.801 7.424 49.141 7.424C48.481 7.424 47.8943 7.59267 47.381 7.93C46.8677 8.25267 46.4717 8.722 46.193 9.338C45.9143 9.93933 45.8043 10.6727 45.863 11.538C45.7897 12.3447 45.8997 13.0487 46.193 13.65C46.501 14.2513 46.9263 14.7207 47.469 15.058C48.0263 15.3953 48.657 15.564 49.361 15.564C50.0797 15.564 50.6883 15.4027 51.187 15.08C51.7003 14.7573 52.1037 14.3393 52.397 13.826L54.421 14.816C54.1863 15.3733 53.8197 15.8793 53.321 16.334C52.837 16.774 52.2503 17.126 51.561 17.39C50.8863 17.6393 50.1457 17.764 49.339 17.764ZM62.0832 17.764C60.8658 17.764 59.7952 17.4633 58.8712 16.862C57.9618 16.2607 57.3238 15.454 56.9572 14.442L58.8712 13.54C59.1938 14.2147 59.6338 14.75 60.1912 15.146C60.7632 15.542 61.3938 15.74 62.0832 15.74C62.6698 15.74 63.1465 15.608 63.5132 15.344C63.8798 15.08 64.0632 14.7207 64.0632 14.266C64.0632 13.9727 63.9825 13.738 63.8212 13.562C63.6598 13.3713 63.4545 13.2173 63.2052 13.1C62.9705 12.9827 62.7285 12.8947 62.4792 12.836L60.6092 12.308C59.5825 12.0147 58.8125 11.5747 58.2992 10.988C57.8005 10.3867 57.5512 9.69 57.5512 8.898C57.5512 8.17933 57.7345 7.556 58.1012 7.028C58.4678 6.48533 58.9738 6.06733 59.6192 5.774C60.2645 5.48067 60.9905 5.334 61.7972 5.334C62.8825 5.334 63.8505 5.60533 64.7012 6.148C65.5518 6.676 66.1532 7.41667 66.5052 8.37L64.5912 9.272C64.3565 8.7 63.9825 8.24533 63.4692 7.908C62.9705 7.57067 62.4058 7.402 61.7752 7.402C61.2325 7.402 60.7998 7.534 60.4772 7.798C60.1545 8.04733 59.9932 8.37733 59.9932 8.788C59.9932 9.06667 60.0665 9.30133 60.2132 9.492C60.3598 9.668 60.5505 9.81467 60.7852 9.932C61.0198 10.0347 61.2618 10.1227 61.5112 10.196L63.4472 10.768C64.4298 11.0467 65.1852 11.4867 65.7132 12.088C66.2412 12.6747 66.5052 13.3787 66.5052 14.2C66.5052 14.904 66.3145 15.5273 65.9332 16.07C65.5665 16.598 65.0532 17.016 64.3932 17.324C63.7332 17.6173 62.9632 17.764 62.0832 17.764Z" fill="black"/>
</svg>
