<svg width="50" height="50" viewBox="0 0 50 50" fill="none" xmlns="http://www.w3.org/2000/svg">
<path d="M45.8334 35.25V41.5C45.8357 42.0802 45.7169 42.6546 45.4844 43.1862C45.252 43.7178 44.9111 44.195 44.4835 44.5873C44.056 44.9795 43.5512 45.2781 43.0016 45.464C42.4519 45.6499 41.8695 45.7189 41.2917 45.6667C34.8809 44.9701 28.7229 42.7795 23.3125 39.2709C18.2788 36.0723 14.0111 31.8046 10.8125 26.7709C7.29164 21.3359 5.10053 15.1479 4.41669 8.70837C4.36463 8.13226 4.4331 7.55162 4.61773 7.00342C4.80237 6.45522 5.09913 5.95148 5.48912 5.52425C5.87911 5.09702 6.35378 4.75568 6.88292 4.52196C7.41206 4.28824 7.98407 4.16725 8.56252 4.16671H14.8125C15.8236 4.15675 16.8038 4.51479 17.5704 5.17407C18.337 5.83334 18.8377 6.74889 18.9792 7.75004C19.243 9.75018 19.7322 11.7141 20.4375 13.6042C20.7178 14.3499 20.7785 15.1603 20.6123 15.9394C20.4462 16.7185 20.0602 17.4336 19.5 18L16.8542 20.6459C19.8199 25.8616 24.1385 30.1801 29.3542 33.1459L32 30.5C32.5665 29.9399 33.2816 29.5539 34.0607 29.3877C34.8398 29.2216 35.6502 29.2822 36.3959 29.5625C38.286 30.2679 40.2499 30.7571 42.25 31.0209C43.262 31.1636 44.1863 31.6734 44.847 32.4532C45.5077 33.2329 45.8587 34.2283 45.8334 35.25Z" stroke="#8B5CF6" stroke-width="2" stroke-linecap="round" stroke-linejoin="round"/>
</svg>
