<svg width="419" height="551" viewBox="0 0 419 551" fill="none" xmlns="http://www.w3.org/2000/svg">
<path d="M255.429 422.601C256.129 442.377 264.624 462.165 259.2 481.198C253.385 501.6 241.368 521.293 223.874 533.323C206.232 545.455 181.704 556.491 162.039 548.01C138.858 538.012 132.834 507.884 117.844 487.592C110.093 477.099 102.137 467.289 94.5642 456.668C88.2393 447.796 85.7744 435.699 76.6235 429.776C54.1394 415.222 18.1728 420.499 3.80056 397.917C-6.8619 381.164 6.92064 356.005 20.3699 341.387C34.1188 326.444 58.4632 328.655 76.3644 319.051C90.0315 311.719 100.802 300.792 113.257 291.555C130.196 278.992 144.261 245.904 163.583 254.367C187.06 264.651 180.664 301.777 190.533 325.405C195.089 336.313 197.053 349.393 206.336 356.725C220.368 367.806 244.82 362.38 255.5 376.711C264.746 389.118 254.882 407.145 255.429 422.601Z" fill="#6D28D9"/>
<path d="M404.446 217.674C382.179 245.257 323.436 223.398 305.683 254.074C287.792 284.988 345.858 331.264 322.879 358.619C303.366 381.848 265.495 336.167 235.188 337.994C210.453 339.485 191.65 375.533 168.061 367.954C143.358 360.018 144.327 322.102 126.655 303.126C112.731 288.176 88.1447 286.008 76.267 269.39C64.2365 252.558 62.4972 230.714 60.2086 210.161C57.9049 189.473 58.9626 168.91 62.8002 148.45C66.9641 126.251 75.6295 105.864 83.7267 84.7756C94.8518 55.8014 88.7549 -1.57611 119.787 0.0331528C162.103 2.22754 164.309 85.5225 206.307 91.1323C241.147 95.7859 251.128 10.4754 284.325 22.0107C315.736 32.9254 266.077 97.7699 290.449 120.37C318.576 146.453 374.497 107.779 403.675 132.684C425.479 151.295 422.448 195.374 404.446 217.674Z" fill="#6D28D9"/>
</svg>
