<svg width="551" height="419" viewBox="0 0 551 419" fill="none" xmlns="http://www.w3.org/2000/svg">
<path d="M422.601 163.571C442.377 162.871 462.165 154.376 481.198 159.8C501.6 165.615 521.293 177.632 533.323 195.126C545.455 212.768 556.491 237.296 548.01 256.961C538.012 280.142 507.884 286.166 487.592 301.156C477.099 308.907 467.289 316.863 456.668 324.436C447.796 330.761 435.699 333.226 429.776 342.377C415.222 364.861 420.499 400.827 397.917 415.199C381.164 425.862 356.005 412.079 341.387 398.63C326.444 384.881 328.655 360.537 319.051 342.636C311.719 328.969 300.792 318.198 291.555 305.743C278.992 288.804 245.904 274.739 254.367 255.417C264.651 231.94 301.777 238.336 325.405 228.467C336.313 223.911 349.393 221.947 356.725 212.664C367.806 198.632 362.38 174.18 376.711 163.5C389.118 154.254 407.145 164.118 422.601 163.571Z" fill="#6D28D9"/>
<path d="M217.674 14.5537C245.257 36.8207 223.398 95.5643 254.074 113.317C284.988 131.208 331.264 73.1422 358.619 96.1213C381.848 115.634 336.167 153.505 337.994 183.812C339.485 208.547 375.533 227.35 367.954 250.939C360.018 275.642 322.102 274.673 303.126 292.345C288.176 306.269 286.008 330.855 269.39 342.733C252.558 354.764 230.714 356.503 210.161 358.791C189.473 361.095 168.91 360.037 148.45 356.2C126.251 352.036 105.864 343.371 84.7756 335.273C55.8014 324.148 -1.57611 330.245 0.0331528 299.213C2.22754 256.897 85.5225 254.691 91.1323 212.693C95.7859 177.853 10.4754 167.872 22.0107 134.675C32.9254 103.264 97.7699 152.923 120.37 128.551C146.453 100.424 107.779 44.5033 132.684 15.3249C151.295 -6.47918 195.374 -3.44833 217.674 14.5537Z" fill="#6D28D9"/>
</svg>
