<svg width="30" height="30" viewBox="0 0 30 30" fill="none" xmlns="http://www.w3.org/2000/svg">
<rect width="30" height="30" rx="15" fill="#DDD6FE"/>
<path d="M12.8754 5.12457L15.664 8.52869L19.0858 5.76182L19.3409 10.1549L23.7356 9.92774L21.3598 13.6318L25.0486 16.0311L20.9494 17.6313L22.5234 21.7406L18.2665 20.6257L17.1246 24.8754L14.336 21.4713L10.9142 24.2382L10.6591 19.8451L6.26444 20.0723L8.64022 16.3682L4.95138 13.9689L9.05061 12.3687L7.47655 8.25941L11.7335 9.3743L12.8754 5.12457Z" fill="#F6AA05"/>
<path d="M15.0001 11.2911C17.0484 11.2912 18.709 12.9518 18.709 15.0001C18.709 17.0484 17.0484 18.7091 15.0001 18.7091C12.9517 18.7091 11.2911 17.0485 11.2911 15.0001C11.2911 12.9517 12.9517 11.2911 15.0001 11.2911Z" stroke="#DDD6FE"/>
</svg>
