<svg width="1440" height="762" viewBox="0 0 1440 762" fill="none" xmlns="http://www.w3.org/2000/svg">
<path d="M476.832 84.6688L497.398 109.774L522.634 89.3686L524.515 121.768L556.926 120.092L539.404 147.41L566.61 165.105L536.378 176.906L547.986 207.213L516.591 198.99L508.169 230.332L487.603 205.227L462.368 225.633L460.486 193.233L428.075 194.909L445.597 167.591L418.392 149.896L448.624 138.095L437.015 107.788L468.41 116.011L476.832 84.6688Z" fill="#F6AA05"/>
<path d="M523.041 157.501C523.041 174.368 509.367 188.041 492.5 188.041C475.633 188.041 461.96 174.368 461.96 157.501C461.96 140.633 475.633 126.96 492.5 126.96C509.367 126.96 523.041 140.633 523.041 157.501Z" stroke="#DDD6FE"/>
</svg>
