<svg width="1440" height="762" viewBox="0 0 1440 762" fill="none" xmlns="http://www.w3.org/2000/svg">
<path d="M606.832 84.6688L627.398 109.774L652.634 89.3686L654.515 121.768L686.926 120.092L669.404 147.41L696.61 165.105L666.378 176.906L677.986 207.213L646.591 198.99L638.169 230.332L617.603 205.227L592.368 225.633L590.486 193.233L558.075 194.909L575.597 167.591L548.392 149.896L578.624 138.095L567.015 107.788L598.41 116.011L606.832 84.6688Z" fill="#F6AA05"/>
<path d="M653.041 157.501C653.041 174.368 639.367 188.041 622.5 188.041C605.633 188.041 591.96 174.368 591.96 157.501C591.96 140.633 605.633 126.96 622.5 126.96C639.367 126.96 653.041 140.633 653.041 157.501Z" stroke="#DDD6FE"/>
</svg>
