<svg width="1440" height="762" viewBox="0 0 1440 762" fill="none" xmlns="http://www.w3.org/2000/svg">
<path fill-rule="evenodd" clip-rule="evenodd" d="M0 499.363L34.8 428.621C68.4 357.878 136.8 216.393 205.2 206.287C274.8 196.181 343.2 317.454 411.6 367.984C480 418.515 548.4 398.302 616.8 337.666C685.2 277.029 754.8 175.968 823.2 165.862C891.6 155.756 960 236.605 1028.4 297.242C1096.8 357.878 1165.2 398.302 1234.8 408.409C1303.2 418.515 1371.6 398.302 1405.2 388.196L1440 378.09V560H1405.2C1371.6 560 1303.2 560 1234.8 560C1165.2 560 1096.8 560 1028.4 560C960 560 891.6 560 823.2 560C754.8 560 685.2 560 616.8 560C548.4 560 480 560 411.6 560C343.2 560 274.8 560 205.2 560C136.8 560 68.4 560 34.8 560H0V499.363Z" fill="#A78BFA"/>
</svg>
