<svg width="1440" height="762" viewBox="0 0 1440 762" fill="none" xmlns="http://www.w3.org/2000/svg">
<path fill-rule="evenodd" clip-rule="evenodd" d="M0 521.468L34.8 528.429C68.4 535.39 136.8 549.312 205.2 500.585C274.8 451.858 343.2 340.482 411.6 312.638C480 284.794 548.4 340.482 616.8 361.365C685.2 382.248 754.8 368.326 823.2 354.404C891.6 340.482 960 326.56 1028.4 354.404C1096.8 382.248 1165.2 451.858 1234.8 465.78C1303.2 479.702 1371.6 437.936 1405.2 417.053L1440 396.17V605H1405.2C1371.6 605 1303.2 605 1234.8 605C1165.2 605 1096.8 605 1028.4 605C960 605 891.6 605 823.2 605C754.8 605 685.2 605 616.8 605C548.4 605 480 605 411.6 605C343.2 605 274.8 605 205.2 605C136.8 605 68.4 605 34.8 605H0V521.468Z" fill="#7C3AED"/>
</svg>
