<svg width="1440" height="762" viewBox="0 0 1440 762" fill="none" xmlns="http://www.w3.org/2000/svg">
<path d="M817.935 160.992L795.279 204.672V228H781.839V204.672L759.087 160.992H774.255L788.655 191.616L802.959 160.992H817.935ZM847.863 215.616L861.303 174.816H875.607L855.927 228H839.607L820.023 174.816H834.423L847.863 215.616ZM932.595 200.256C932.595 202.176 932.467 203.904 932.211 205.44H893.331C893.651 209.28 894.995 212.288 897.363 214.464C899.731 216.64 902.643 217.728 906.099 217.728C911.091 217.728 914.643 215.584 916.755 211.296H931.251C929.715 216.416 926.771 220.64 922.419 223.968C918.067 227.232 912.723 228.864 906.387 228.864C901.267 228.864 896.659 227.744 892.563 225.504C888.531 223.2 885.363 219.968 883.059 215.808C880.819 211.648 879.699 206.848 879.699 201.408C879.699 195.904 880.819 191.072 883.059 186.912C885.299 182.752 888.435 179.552 892.467 177.312C896.499 175.072 901.139 173.952 906.387 173.952C911.443 173.952 915.955 175.04 919.923 177.216C923.955 179.392 927.059 182.496 929.235 186.528C931.475 190.496 932.595 195.072 932.595 200.256ZM918.675 196.416C918.611 192.96 917.363 190.208 914.931 188.16C912.499 186.048 909.523 184.992 906.003 184.992C902.675 184.992 899.859 186.016 897.555 188.064C895.315 190.048 893.939 192.832 893.427 196.416H918.675ZM962.757 228.864C958.405 228.864 954.501 228.096 951.045 226.56C947.589 224.96 944.837 222.816 942.789 220.128C940.805 217.44 939.717 214.464 939.525 211.2H953.061C953.317 213.248 954.309 214.944 956.037 216.288C957.829 217.632 960.037 218.304 962.661 218.304C965.221 218.304 967.205 217.792 968.613 216.768C970.085 215.744 970.821 214.432 970.821 212.832C970.821 211.104 969.925 209.824 968.133 208.992C966.405 208.096 963.621 207.136 959.781 206.112C955.813 205.152 952.549 204.16 949.989 203.136C947.493 202.112 945.317 200.544 943.461 198.432C941.669 196.32 940.773 193.472 940.773 189.888C940.773 186.944 941.605 184.256 943.269 181.824C944.997 179.392 947.429 177.472 950.565 176.064C953.765 174.656 957.509 173.952 961.797 173.952C968.133 173.952 973.189 175.552 976.965 178.752C980.741 181.888 982.821 186.144 983.205 191.52H970.341C970.149 189.408 969.253 187.744 967.653 186.528C966.117 185.248 964.037 184.608 961.413 184.608C958.981 184.608 957.093 185.056 955.749 185.952C954.469 186.848 953.829 188.096 953.829 189.696C953.829 191.488 954.725 192.864 956.517 193.824C958.309 194.72 961.093 195.648 964.869 196.608C968.709 197.568 971.877 198.56 974.373 199.584C976.869 200.608 979.013 202.208 980.805 204.384C982.661 206.496 983.621 209.312 983.685 212.832C983.685 215.904 982.821 218.656 981.093 221.088C979.429 223.52 976.997 225.44 973.797 226.848C970.661 228.192 966.981 228.864 962.757 228.864ZM1058.68 215.232H1031.99L1027.58 228H1013.46L1037.56 160.896H1053.21L1077.3 228H1063.1L1058.68 215.232ZM1055.03 204.48L1045.34 176.448L1035.64 204.48H1055.03ZM1115.78 174.048C1122.12 174.048 1127.24 176.064 1131.14 180.096C1135.05 184.064 1137 189.632 1137 196.8V228H1123.56V198.624C1123.56 194.4 1122.5 191.168 1120.39 188.928C1118.28 186.624 1115.4 185.472 1111.75 185.472C1108.04 185.472 1105.1 186.624 1102.92 188.928C1100.81 191.168 1099.75 194.4 1099.75 198.624V228H1086.31V174.816H1099.75V181.44C1101.54 179.136 1103.82 177.344 1106.57 176.064C1109.38 174.72 1112.46 174.048 1115.78 174.048ZM1165.43 185.856V211.584C1165.43 213.376 1165.84 214.688 1166.68 215.52C1167.57 216.288 1169.04 216.672 1171.09 216.672H1177.33V228H1168.88C1157.56 228 1151.89 222.496 1151.89 211.488V185.856H1145.56V174.816H1151.89V161.664H1165.43V174.816H1177.33V185.856H1165.43ZM1210.62 228.864C1205.5 228.864 1200.89 227.744 1196.79 225.504C1192.7 223.2 1189.46 219.968 1187.1 215.808C1184.79 211.648 1183.64 206.848 1183.64 201.408C1183.64 195.968 1184.82 191.168 1187.19 187.008C1189.62 182.848 1192.92 179.648 1197.08 177.408C1201.24 175.104 1205.88 173.952 1211 173.952C1216.12 173.952 1220.76 175.104 1224.92 177.408C1229.08 179.648 1232.34 182.848 1234.71 187.008C1237.14 191.168 1238.36 195.968 1238.36 201.408C1238.36 206.848 1237.11 211.648 1234.61 215.808C1232.18 219.968 1228.86 223.2 1224.63 225.504C1220.47 227.744 1215.8 228.864 1210.62 228.864ZM1210.62 217.152C1213.05 217.152 1215.32 216.576 1217.43 215.424C1219.61 214.208 1221.34 212.416 1222.62 210.048C1223.9 207.68 1224.54 204.8 1224.54 201.408C1224.54 196.352 1223.19 192.48 1220.5 189.792C1217.88 187.04 1214.65 185.664 1210.81 185.664C1206.97 185.664 1203.74 187.04 1201.11 189.792C1198.55 192.48 1197.27 196.352 1197.27 201.408C1197.27 206.464 1198.52 210.368 1201.02 213.12C1203.58 215.808 1206.78 217.152 1210.62 217.152ZM1211.58 162.336L1197.27 170.4V160.608L1211.58 152.832L1225.78 160.608V170.4L1211.58 162.336ZM1277.69 174.048C1284.03 174.048 1289.15 176.064 1293.05 180.096C1296.95 184.064 1298.91 189.632 1298.91 196.8V228H1285.47V198.624C1285.47 194.4 1284.41 191.168 1282.3 188.928C1280.19 186.624 1277.31 185.472 1273.66 185.472C1269.95 185.472 1267 186.624 1264.83 188.928C1262.71 191.168 1261.66 194.4 1261.66 198.624V228H1248.22V174.816H1261.66V181.44C1263.45 179.136 1265.72 177.344 1268.47 176.064C1271.29 174.72 1274.36 174.048 1277.69 174.048ZM1318.5 168.48C1316.13 168.48 1314.15 167.744 1312.55 166.272C1311.01 164.736 1310.25 162.848 1310.25 160.608C1310.25 158.368 1311.01 156.512 1312.55 155.04C1314.15 153.504 1316.13 152.736 1318.5 152.736C1320.87 152.736 1322.82 153.504 1324.36 155.04C1325.96 156.512 1326.76 158.368 1326.76 160.608C1326.76 162.848 1325.96 164.736 1324.36 166.272C1322.82 167.744 1320.87 168.48 1318.5 168.48ZM1325.13 174.816V228H1311.69V174.816H1325.13ZM1362.02 228.864C1356.9 228.864 1352.29 227.744 1348.2 225.504C1344.1 223.2 1340.87 219.968 1338.5 215.808C1336.2 211.648 1335.05 206.848 1335.05 201.408C1335.05 195.968 1336.23 191.168 1338.6 187.008C1341.03 182.848 1344.33 179.648 1348.49 177.408C1352.65 175.104 1357.29 173.952 1362.41 173.952C1367.53 173.952 1372.17 175.104 1376.33 177.408C1380.49 179.648 1383.75 182.848 1386.12 187.008C1388.55 191.168 1389.77 195.968 1389.77 201.408C1389.77 206.848 1388.52 211.648 1386.02 215.808C1383.59 219.968 1380.26 223.2 1376.04 225.504C1371.88 227.744 1367.21 228.864 1362.02 228.864ZM1362.02 217.152C1364.45 217.152 1366.73 216.576 1368.84 215.424C1371.01 214.208 1372.74 212.416 1374.02 210.048C1375.3 207.68 1375.94 204.8 1375.94 201.408C1375.94 196.352 1374.6 192.48 1371.91 189.792C1369.29 187.04 1366.05 185.664 1362.21 185.664C1358.37 185.664 1355.14 187.04 1352.52 189.792C1349.96 192.48 1348.68 196.352 1348.68 201.408C1348.68 206.464 1349.93 210.368 1352.42 213.12C1354.98 215.808 1358.18 217.152 1362.02 217.152Z" fill="white"/>
<path d="M604.021 281.336C601.685 281.336 599.573 280.936 597.685 280.136C595.829 279.336 594.357 278.184 593.269 276.68C592.181 275.176 591.621 273.4 591.589 271.352H598.789C598.885 272.728 599.365 273.816 600.229 274.616C601.125 275.416 602.341 275.816 603.877 275.816C605.445 275.816 606.677 275.448 607.573 274.712C608.469 273.944 608.917 272.952 608.917 271.736C608.917 270.744 608.613 269.928 608.005 269.288C607.397 268.648 606.629 268.152 605.701 267.8C604.805 267.416 603.557 267 601.957 266.552C599.781 265.912 598.005 265.288 596.629 264.68C595.285 264.04 594.117 263.096 593.125 261.848C592.165 260.568 591.685 258.872 591.685 256.76C591.685 254.776 592.181 253.048 593.173 251.576C594.165 250.104 595.557 248.984 597.349 248.216C599.141 247.416 601.189 247.016 603.493 247.016C606.949 247.016 609.749 247.864 611.893 249.56C614.069 251.224 615.269 253.56 615.493 256.568H608.101C608.037 255.416 607.541 254.472 606.613 253.736C605.717 252.968 604.517 252.584 603.013 252.584C601.701 252.584 600.645 252.92 599.845 253.592C599.077 254.264 598.693 255.24 598.693 256.52C598.693 257.416 598.981 258.168 599.557 258.776C600.165 259.352 600.901 259.832 601.765 260.216C602.661 260.568 603.909 260.984 605.509 261.464C607.685 262.104 609.461 262.744 610.837 263.384C612.213 264.024 613.397 264.984 614.389 266.264C615.381 267.544 615.877 269.224 615.877 271.304C615.877 273.096 615.413 274.76 614.485 276.296C613.557 277.832 612.197 279.064 610.405 279.992C608.613 280.888 606.485 281.336 604.021 281.336ZM633.511 281.432C630.951 281.432 628.647 280.872 626.599 279.752C624.551 278.6 622.935 276.984 621.751 274.904C620.599 272.824 620.023 270.424 620.023 267.704C620.023 264.984 620.615 262.584 621.799 260.504C623.015 258.424 624.663 256.824 626.743 255.704C628.823 254.552 631.143 253.976 633.703 253.976C636.263 253.976 638.583 254.552 640.663 255.704C642.743 256.824 644.375 258.424 645.559 260.504C646.775 262.584 647.383 264.984 647.383 267.704C647.383 270.424 646.759 272.824 645.511 274.904C644.295 276.984 642.631 278.6 640.519 279.752C638.439 280.872 636.103 281.432 633.511 281.432ZM633.511 275.576C634.727 275.576 635.863 275.288 636.919 274.712C638.007 274.104 638.871 273.208 639.511 272.024C640.151 270.84 640.471 269.4 640.471 267.704C640.471 265.176 639.799 263.24 638.455 261.896C637.143 260.52 635.527 259.832 633.607 259.832C631.687 259.832 630.071 260.52 628.759 261.896C627.479 263.24 626.839 265.176 626.839 267.704C626.839 270.232 627.463 272.184 628.711 273.56C629.991 274.904 631.591 275.576 633.511 275.576ZM677.416 254.408V281H670.648V277.64C669.784 278.792 668.648 279.704 667.24 280.376C665.864 281.016 664.36 281.336 662.728 281.336C660.648 281.336 658.808 280.904 657.208 280.04C655.608 279.144 654.344 277.848 653.416 276.152C652.52 274.424 652.072 272.376 652.072 270.008V254.408H658.792V269.048C658.792 271.16 659.32 272.792 660.376 273.944C661.432 275.064 662.872 275.624 664.696 275.624C666.552 275.624 668.008 275.064 669.064 273.944C670.12 272.792 670.648 271.16 670.648 269.048V254.408H677.416ZM720.588 254.408V281H713.82V277.64C712.956 278.792 711.82 279.704 710.412 280.376C709.036 281.016 707.532 281.336 705.9 281.336C703.82 281.336 701.98 280.904 700.38 280.04C698.78 279.144 697.516 277.848 696.588 276.152C695.692 274.424 695.244 272.376 695.244 270.008V254.408H701.964V269.048C701.964 271.16 702.492 272.792 703.548 273.944C704.604 275.064 706.044 275.624 707.868 275.624C709.724 275.624 711.18 275.064 712.236 273.944C713.292 272.792 713.82 271.16 713.82 269.048V254.408H720.588ZM760.242 254.024C763.506 254.024 766.13 255.032 768.114 257.048C770.13 259.032 771.138 261.816 771.138 265.4V281H764.418V266.312C764.418 264.232 763.89 262.648 762.834 261.56C761.778 260.44 760.338 259.88 758.514 259.88C756.69 259.88 755.234 260.44 754.146 261.56C753.09 262.648 752.562 264.232 752.562 266.312V281H745.842V266.312C745.842 264.232 745.314 262.648 744.258 261.56C743.202 260.44 741.762 259.88 739.938 259.88C738.082 259.88 736.61 260.44 735.522 261.56C734.466 262.648 733.938 264.232 733.938 266.312V281H727.218V254.408H733.938V257.624C734.802 256.504 735.906 255.624 737.25 254.984C738.626 254.344 740.13 254.024 741.762 254.024C743.842 254.024 745.698 254.472 747.33 255.368C748.962 256.232 750.226 257.48 751.122 259.112C751.986 257.576 753.234 256.344 754.866 255.416C756.53 254.488 758.322 254.024 760.242 254.024ZM787.225 267.608C787.225 264.92 787.753 262.536 788.809 260.456C789.897 258.376 791.369 256.776 793.225 255.656C795.081 254.536 797.145 253.976 799.417 253.976C801.145 253.976 802.793 254.36 804.361 255.128C805.929 255.864 807.177 256.856 808.105 258.104V245.48H814.921V281H808.105V277.064C807.273 278.376 806.105 279.432 804.601 280.232C803.097 281.032 801.353 281.432 799.369 281.432C797.129 281.432 795.081 280.856 793.225 279.704C791.369 278.552 789.897 276.936 788.809 274.856C787.753 272.744 787.225 270.328 787.225 267.608ZM808.153 267.704C808.153 266.072 807.833 264.68 807.193 263.528C806.553 262.344 805.689 261.448 804.601 260.84C803.513 260.2 802.345 259.88 801.097 259.88C799.849 259.88 798.697 260.184 797.641 260.792C796.585 261.4 795.721 262.296 795.049 263.48C794.409 264.632 794.089 266.008 794.089 267.608C794.089 269.208 794.409 270.616 795.049 271.832C795.721 273.016 796.585 273.928 797.641 274.568C798.729 275.208 799.881 275.528 801.097 275.528C802.345 275.528 803.513 275.224 804.601 274.616C805.689 273.976 806.553 273.08 807.193 271.928C807.833 270.744 808.153 269.336 808.153 267.704ZM846.204 267.128C846.204 268.088 846.14 268.952 846.012 269.72H826.572C826.732 271.64 827.404 273.144 828.588 274.232C829.772 275.32 831.228 275.864 832.956 275.864C835.452 275.864 837.228 274.792 838.284 272.648H845.532C844.764 275.208 843.292 277.32 841.116 278.984C838.94 280.616 836.268 281.432 833.1 281.432C830.54 281.432 828.236 280.872 826.188 279.752C824.172 278.6 822.588 276.984 821.436 274.904C820.316 272.824 819.756 270.424 819.756 267.704C819.756 264.952 820.316 262.536 821.436 260.456C822.556 258.376 824.124 256.776 826.14 255.656C828.156 254.536 830.476 253.976 833.1 253.976C835.628 253.976 837.884 254.52 839.868 255.608C841.884 256.696 843.436 258.248 844.524 260.264C845.644 262.248 846.204 264.536 846.204 267.128ZM839.244 265.208C839.212 263.48 838.588 262.104 837.372 261.08C836.156 260.024 834.668 259.496 832.908 259.496C831.244 259.496 829.836 260.008 828.684 261.032C827.564 262.024 826.876 263.416 826.62 265.208H839.244ZM861.285 281.432C859.109 281.432 857.157 281.048 855.429 280.28C853.701 279.48 852.325 278.408 851.301 277.064C850.309 275.72 849.765 274.232 849.669 272.6H856.437C856.565 273.624 857.061 274.472 857.925 275.144C858.821 275.816 859.925 276.152 861.237 276.152C862.517 276.152 863.509 275.896 864.213 275.384C864.949 274.872 865.317 274.216 865.317 273.416C865.317 272.552 864.869 271.912 863.973 271.496C863.109 271.048 861.717 270.568 859.797 270.056C857.813 269.576 856.181 269.08 854.901 268.568C853.653 268.056 852.565 267.272 851.637 266.216C850.741 265.16 850.293 263.736 850.293 261.944C850.293 260.472 850.709 259.128 851.541 257.912C852.405 256.696 853.621 255.736 855.189 255.032C856.789 254.328 858.661 253.976 860.805 253.976C863.973 253.976 866.501 254.776 868.389 256.376C870.277 257.944 871.317 260.072 871.509 262.76H865.077C864.981 261.704 864.533 260.872 863.733 260.264C862.965 259.624 861.925 259.304 860.613 259.304C859.397 259.304 858.453 259.528 857.781 259.976C857.141 260.424 856.821 261.048 856.821 261.848C856.821 262.744 857.269 263.432 858.165 263.912C859.061 264.36 860.453 264.824 862.341 265.304C864.261 265.784 865.845 266.28 867.093 266.792C868.341 267.304 869.413 268.104 870.309 269.192C871.237 270.248 871.717 271.656 871.749 273.416C871.749 274.952 871.317 276.328 870.453 277.544C869.621 278.76 868.405 279.72 866.805 280.424C865.237 281.096 863.397 281.432 861.285 281.432ZM901.985 267.128C901.985 268.088 901.921 268.952 901.793 269.72H882.353C882.513 271.64 883.185 273.144 884.369 274.232C885.553 275.32 887.009 275.864 888.737 275.864C891.233 275.864 893.009 274.792 894.065 272.648H901.313C900.545 275.208 899.073 277.32 896.897 278.984C894.721 280.616 892.049 281.432 888.881 281.432C886.321 281.432 884.017 280.872 881.969 279.752C879.953 278.6 878.369 276.984 877.217 274.904C876.097 272.824 875.537 270.424 875.537 267.704C875.537 264.952 876.097 262.536 877.217 260.456C878.337 258.376 879.905 256.776 881.921 255.656C883.937 254.536 886.257 253.976 888.881 253.976C891.409 253.976 893.665 254.52 895.649 255.608C897.665 256.696 899.217 258.248 900.305 260.264C901.425 262.248 901.985 264.536 901.985 267.128ZM895.025 265.208C894.993 263.48 894.369 262.104 893.153 261.08C891.937 260.024 890.449 259.496 888.689 259.496C887.025 259.496 885.617 260.008 884.465 261.032C883.345 262.024 882.657 263.416 882.401 265.208H895.025ZM921.626 254.024C924.794 254.024 927.354 255.032 929.306 257.048C931.258 259.032 932.234 261.816 932.234 265.4V281H925.514V266.312C925.514 264.2 924.986 262.584 923.93 261.464C922.874 260.312 921.434 259.736 919.61 259.736C917.754 259.736 916.282 260.312 915.194 261.464C914.138 262.584 913.61 264.2 913.61 266.312V281H906.89V254.408H913.61V257.72C914.506 256.568 915.642 255.672 917.018 255.032C918.426 254.36 919.962 254.024 921.626 254.024ZM949.713 274.808L956.433 254.408H963.585L953.745 281H945.585L935.793 254.408H942.993L949.713 274.808ZM979.167 281.432C976.607 281.432 974.303 280.872 972.255 279.752C970.207 278.6 968.591 276.984 967.407 274.904C966.255 272.824 965.679 270.424 965.679 267.704C965.679 264.984 966.271 262.584 967.455 260.504C968.671 258.424 970.319 256.824 972.399 255.704C974.479 254.552 976.799 253.976 979.359 253.976C981.919 253.976 984.239 254.552 986.319 255.704C988.399 256.824 990.031 258.424 991.215 260.504C992.431 262.584 993.039 264.984 993.039 267.704C993.039 270.424 992.415 272.824 991.167 274.904C989.951 276.984 988.287 278.6 986.175 279.752C984.095 280.872 981.759 281.432 979.167 281.432ZM979.167 275.576C980.383 275.576 981.519 275.288 982.575 274.712C983.663 274.104 984.527 273.208 985.167 272.024C985.807 270.84 986.127 269.4 986.127 267.704C986.127 265.176 985.455 263.24 984.111 261.896C982.799 260.52 981.183 259.832 979.263 259.832C977.343 259.832 975.727 260.52 974.415 261.896C973.135 263.24 972.495 265.176 972.495 267.704C972.495 270.232 973.119 272.184 974.367 273.56C975.647 274.904 977.247 275.576 979.167 275.576ZM1004.69 245.48V281H997.968V245.48H1004.69ZM1022.42 274.808L1029.14 254.408H1036.29L1026.45 281H1018.29L1008.5 254.408H1015.7L1022.42 274.808ZM1064.78 267.128C1064.78 268.088 1064.72 268.952 1064.59 269.72H1045.15C1045.31 271.64 1045.98 273.144 1047.17 274.232C1048.35 275.32 1049.81 275.864 1051.53 275.864C1054.03 275.864 1055.81 274.792 1056.86 272.648H1064.11C1063.34 275.208 1061.87 277.32 1059.69 278.984C1057.52 280.616 1054.85 281.432 1051.68 281.432C1049.12 281.432 1046.81 280.872 1044.77 279.752C1042.75 278.6 1041.17 276.984 1040.01 274.904C1038.89 272.824 1038.33 270.424 1038.33 267.704C1038.33 264.952 1038.89 262.536 1040.01 260.456C1041.13 258.376 1042.7 256.776 1044.72 255.656C1046.73 254.536 1049.05 253.976 1051.68 253.976C1054.21 253.976 1056.46 254.52 1058.45 255.608C1060.46 256.696 1062.01 258.248 1063.1 260.264C1064.22 262.248 1064.78 264.536 1064.78 267.128ZM1057.82 265.208C1057.79 263.48 1057.17 262.104 1055.95 261.08C1054.73 260.024 1053.25 259.496 1051.49 259.496C1049.82 259.496 1048.41 260.008 1047.26 261.032C1046.14 262.024 1045.45 263.416 1045.2 265.208H1057.82ZM1067.96 267.608C1067.96 264.92 1068.49 262.536 1069.54 260.456C1070.63 258.376 1072.1 256.776 1073.96 255.656C1075.82 254.536 1077.88 253.976 1080.15 253.976C1081.88 253.976 1083.53 254.36 1085.1 255.128C1086.66 255.864 1087.91 256.856 1088.84 258.104V245.48H1095.66V281H1088.84V277.064C1088.01 278.376 1086.84 279.432 1085.34 280.232C1083.83 281.032 1082.09 281.432 1080.1 281.432C1077.86 281.432 1075.82 280.856 1073.96 279.704C1072.1 278.552 1070.63 276.936 1069.54 274.856C1068.49 272.744 1067.96 270.328 1067.96 267.608ZM1088.89 267.704C1088.89 266.072 1088.57 264.68 1087.93 263.528C1087.29 262.344 1086.42 261.448 1085.34 260.84C1084.25 260.2 1083.08 259.88 1081.83 259.88C1080.58 259.88 1079.43 260.184 1078.38 260.792C1077.32 261.4 1076.46 262.296 1075.78 263.48C1075.14 264.632 1074.82 266.008 1074.82 267.608C1074.82 269.208 1075.14 270.616 1075.78 271.832C1076.46 273.016 1077.32 273.928 1078.38 274.568C1079.46 275.208 1080.62 275.528 1081.83 275.528C1083.08 275.528 1084.25 275.224 1085.34 274.616C1086.42 273.976 1087.29 273.08 1087.93 271.928C1088.57 270.744 1088.89 269.336 1088.89 267.704ZM1114.03 281.432C1111.47 281.432 1109.16 280.872 1107.11 279.752C1105.07 278.6 1103.45 276.984 1102.27 274.904C1101.11 272.824 1100.54 270.424 1100.54 267.704C1100.54 264.984 1101.13 262.584 1102.31 260.504C1103.53 258.424 1105.18 256.824 1107.26 255.704C1109.34 254.552 1111.66 253.976 1114.22 253.976C1116.78 253.976 1119.1 254.552 1121.18 255.704C1123.26 256.824 1124.89 258.424 1126.07 260.504C1127.29 262.584 1127.9 264.984 1127.9 267.704C1127.9 270.424 1127.27 272.824 1126.03 274.904C1124.81 276.984 1123.15 278.6 1121.03 279.752C1118.95 280.872 1116.62 281.432 1114.03 281.432ZM1114.03 275.576C1115.24 275.576 1116.38 275.288 1117.43 274.712C1118.52 274.104 1119.39 273.208 1120.03 272.024C1120.67 270.84 1120.99 269.4 1120.99 267.704C1120.99 265.176 1120.31 263.24 1118.97 261.896C1117.66 260.52 1116.04 259.832 1114.12 259.832C1112.2 259.832 1110.59 260.52 1109.27 261.896C1107.99 263.24 1107.35 265.176 1107.35 267.704C1107.35 270.232 1107.98 272.184 1109.23 273.56C1110.51 274.904 1112.11 275.576 1114.03 275.576ZM1139.55 258.536C1140.41 257.128 1141.53 256.024 1142.91 255.224C1144.32 254.424 1145.92 254.024 1147.71 254.024V261.08H1145.93C1143.82 261.08 1142.22 261.576 1141.13 262.568C1140.08 263.56 1139.55 265.288 1139.55 267.752V281H1132.83V254.408H1139.55V258.536ZM1184.36 247.496V252.92H1170.39V261.512H1181.1V266.84H1170.39V281H1163.67V247.496H1184.36ZM1214.23 254.408V281H1207.46V277.64C1206.6 278.792 1205.46 279.704 1204.05 280.376C1202.68 281.016 1201.17 281.336 1199.54 281.336C1197.46 281.336 1195.62 280.904 1194.02 280.04C1192.42 279.144 1191.16 277.848 1190.23 276.152C1189.33 274.424 1188.88 272.376 1188.88 270.008V254.408H1195.6V269.048C1195.6 271.16 1196.13 272.792 1197.19 273.944C1198.24 275.064 1199.68 275.624 1201.51 275.624C1203.36 275.624 1204.82 275.064 1205.88 273.944C1206.93 272.792 1207.46 271.16 1207.46 269.048V254.408H1214.23ZM1227.58 245.48V281H1220.86V245.48H1227.58ZM1240.94 245.48V281H1234.22V245.48H1240.94ZM1270.58 281.336C1268.25 281.336 1266.14 280.936 1264.25 280.136C1262.39 279.336 1260.92 278.184 1259.83 276.68C1258.74 275.176 1258.18 273.4 1258.15 271.352H1265.35C1265.45 272.728 1265.93 273.816 1266.79 274.616C1267.69 275.416 1268.9 275.816 1270.44 275.816C1272.01 275.816 1273.24 275.448 1274.14 274.712C1275.03 273.944 1275.48 272.952 1275.48 271.736C1275.48 270.744 1275.18 269.928 1274.57 269.288C1273.96 268.648 1273.19 268.152 1272.26 267.8C1271.37 267.416 1270.12 267 1268.52 266.552C1266.34 265.912 1264.57 265.288 1263.19 264.68C1261.85 264.04 1260.68 263.096 1259.69 261.848C1258.73 260.568 1258.25 258.872 1258.25 256.76C1258.25 254.776 1258.74 253.048 1259.74 251.576C1260.73 250.104 1262.12 248.984 1263.91 248.216C1265.7 247.416 1267.75 247.016 1270.06 247.016C1273.51 247.016 1276.31 247.864 1278.46 249.56C1280.63 251.224 1281.83 253.56 1282.06 256.568H1274.66C1274.6 255.416 1274.1 254.472 1273.18 253.736C1272.28 252.968 1271.08 252.584 1269.58 252.584C1268.26 252.584 1267.21 252.92 1266.41 253.592C1265.64 254.264 1265.26 255.24 1265.26 256.52C1265.26 257.416 1265.54 258.168 1266.12 258.776C1266.73 259.352 1267.46 259.832 1268.33 260.216C1269.22 260.568 1270.47 260.984 1272.07 261.464C1274.25 262.104 1276.02 262.744 1277.4 263.384C1278.78 264.024 1279.96 264.984 1280.95 266.264C1281.94 267.544 1282.44 269.224 1282.44 271.304C1282.44 273.096 1281.98 274.76 1281.05 276.296C1280.12 277.832 1278.76 279.064 1276.97 279.992C1275.18 280.888 1273.05 281.336 1270.58 281.336ZM1296.09 259.928V272.792C1296.09 273.688 1296.3 274.344 1296.71 274.76C1297.16 275.144 1297.9 275.336 1298.92 275.336H1302.04V281H1297.82C1292.15 281 1289.32 278.248 1289.32 272.744V259.928H1286.15V254.408H1289.32V247.832H1296.09V254.408H1302.04V259.928H1296.09ZM1305.15 267.608C1305.15 264.92 1305.67 262.536 1306.73 260.456C1307.82 258.376 1309.27 256.776 1311.1 255.656C1312.95 254.536 1315.02 253.976 1317.29 253.976C1319.27 253.976 1321 254.376 1322.47 255.176C1323.98 255.976 1325.18 256.984 1326.07 258.2V254.408H1332.84V281H1326.07V277.112C1325.21 278.36 1324.01 279.4 1322.47 280.232C1320.97 281.032 1319.23 281.432 1317.24 281.432C1315 281.432 1312.95 280.856 1311.1 279.704C1309.27 278.552 1307.82 276.936 1306.73 274.856C1305.67 272.744 1305.15 270.328 1305.15 267.608ZM1326.07 267.704C1326.07 266.072 1325.75 264.68 1325.11 263.528C1324.47 262.344 1323.61 261.448 1322.52 260.84C1321.43 260.2 1320.27 259.88 1319.02 259.88C1317.77 259.88 1316.62 260.184 1315.56 260.792C1314.51 261.4 1313.64 262.296 1312.97 263.48C1312.33 264.632 1312.01 266.008 1312.01 267.608C1312.01 269.208 1312.33 270.616 1312.97 271.832C1313.64 273.016 1314.51 273.928 1315.56 274.568C1316.65 275.208 1317.8 275.528 1319.02 275.528C1320.27 275.528 1321.43 275.224 1322.52 274.616C1323.61 273.976 1324.47 273.08 1325.11 271.928C1325.75 270.744 1326.07 269.336 1326.07 267.704ZM1337.68 267.704C1337.68 264.952 1338.24 262.552 1339.36 260.504C1340.48 258.424 1342.03 256.824 1344.01 255.704C1346 254.552 1348.27 253.976 1350.83 253.976C1354.13 253.976 1356.85 254.808 1358.99 256.472C1361.17 258.104 1362.62 260.408 1363.36 263.384H1356.11C1355.73 262.232 1355.07 261.336 1354.14 260.696C1353.25 260.024 1352.13 259.688 1350.78 259.688C1348.86 259.688 1347.34 260.392 1346.22 261.8C1345.1 263.176 1344.54 265.144 1344.54 267.704C1344.54 270.232 1345.1 272.2 1346.22 273.608C1347.34 274.984 1348.86 275.672 1350.78 275.672C1353.5 275.672 1355.28 274.456 1356.11 272.024H1363.36C1362.62 274.904 1361.17 277.192 1358.99 278.888C1356.81 280.584 1354.09 281.432 1350.83 281.432C1348.27 281.432 1346 280.872 1344.01 279.752C1342.03 278.6 1340.48 277 1339.36 274.952C1338.24 272.872 1337.68 270.456 1337.68 267.704ZM1384.02 281L1375 269.672V281H1368.28V245.48H1375V265.688L1383.93 254.408H1392.66L1380.95 267.752L1392.76 281H1384.02Z" fill="#DDD6FE"/>
<path d="M1096.93 136.252C1094.58 136.252 1092.42 135.7 1090.45 134.596C1088.48 133.492 1086.92 131.968 1085.77 130.024C1084.62 128.056 1084.04 125.836 1084.04 123.364C1084.04 120.916 1084.62 118.72 1085.77 116.776C1086.92 114.808 1088.48 113.272 1090.45 112.168C1092.42 111.064 1094.58 110.512 1096.93 110.512C1099.31 110.512 1101.47 111.064 1103.41 112.168C1105.38 113.272 1106.93 114.808 1108.05 116.776C1109.21 118.72 1109.78 120.916 1109.78 123.364C1109.78 125.836 1109.21 128.056 1108.05 130.024C1106.93 131.968 1105.38 133.492 1103.41 134.596C1101.44 135.7 1099.28 136.252 1096.93 136.252ZM1096.93 131.752C1098.44 131.752 1099.77 131.416 1100.93 130.744C1102.08 130.048 1102.98 129.064 1103.63 127.792C1104.27 126.52 1104.6 125.044 1104.6 123.364C1104.6 121.684 1104.27 120.22 1103.63 118.972C1102.98 117.7 1102.08 116.728 1100.93 116.056C1099.77 115.384 1098.44 115.048 1096.93 115.048C1095.42 115.048 1094.07 115.384 1092.9 116.056C1091.75 116.728 1090.85 117.7 1090.2 118.972C1089.55 120.22 1089.23 121.684 1089.23 123.364C1089.23 125.044 1089.55 126.52 1090.2 127.792C1090.85 129.064 1091.75 130.048 1092.9 130.744C1094.07 131.416 1095.42 131.752 1096.93 131.752ZM1118.57 109.36V136H1113.53V109.36H1118.57ZM1122.25 125.956C1122.25 123.94 1122.65 122.152 1123.44 120.592C1124.26 119.032 1125.35 117.832 1126.72 116.992C1128.11 116.152 1129.66 115.732 1131.36 115.732C1132.85 115.732 1134.15 116.032 1135.25 116.632C1136.38 117.232 1137.28 117.988 1137.95 118.9V116.056H1143.03V136H1137.95V133.084C1137.3 134.02 1136.4 134.8 1135.25 135.424C1134.12 136.024 1132.81 136.324 1131.33 136.324C1129.65 136.324 1128.11 135.892 1126.72 135.028C1125.35 134.164 1124.26 132.952 1123.44 131.392C1122.65 129.808 1122.25 127.996 1122.25 125.956ZM1137.95 126.028C1137.95 124.804 1137.71 123.76 1137.23 122.896C1136.75 122.008 1136.1 121.336 1135.29 120.88C1134.47 120.4 1133.59 120.16 1132.66 120.16C1131.72 120.16 1130.86 120.388 1130.07 120.844C1129.27 121.3 1128.63 121.972 1128.12 122.86C1127.64 123.724 1127.4 124.756 1127.4 125.956C1127.4 127.156 1127.64 128.212 1128.12 129.124C1128.63 130.012 1129.27 130.696 1130.07 131.176C1130.88 131.656 1131.75 131.896 1132.66 131.896C1133.59 131.896 1134.47 131.668 1135.29 131.212C1136.1 130.732 1136.75 130.06 1137.23 129.196C1137.71 128.308 1137.95 127.252 1137.95 126.028ZM1137.27 110.872L1128.99 114.652V111.052L1137.27 106.768V110.872ZM1153.46 130.708L1149.24 140.824H1146L1148.34 130.708H1153.46ZM1190.44 115.768C1192.88 115.768 1194.85 116.524 1196.34 118.036C1197.85 119.524 1198.61 121.612 1198.61 124.3V136H1193.57V124.984C1193.57 123.424 1193.17 122.236 1192.38 121.42C1191.59 120.58 1190.51 120.16 1189.14 120.16C1187.77 120.16 1186.68 120.58 1185.86 121.42C1185.07 122.236 1184.68 123.424 1184.68 124.984V136H1179.64V124.984C1179.64 123.424 1179.24 122.236 1178.45 121.42C1177.66 120.58 1176.58 120.16 1175.21 120.16C1173.82 120.16 1172.71 120.58 1171.9 121.42C1171.1 122.236 1170.71 123.424 1170.71 124.984V136H1165.67V116.056H1170.71V118.468C1171.36 117.628 1172.18 116.968 1173.19 116.488C1174.22 116.008 1175.35 115.768 1176.58 115.768C1178.14 115.768 1179.53 116.104 1180.75 116.776C1181.98 117.424 1182.92 118.36 1183.6 119.584C1184.24 118.432 1185.18 117.508 1186.4 116.812C1187.65 116.116 1189 115.768 1190.44 115.768ZM1221.93 125.596C1221.93 126.316 1221.88 126.964 1221.79 127.54H1207.21C1207.33 128.98 1207.83 130.108 1208.72 130.924C1209.61 131.74 1210.7 132.148 1211.99 132.148C1213.87 132.148 1215.2 131.344 1215.99 129.736H1221.43C1220.85 131.656 1219.75 133.24 1218.11 134.488C1216.48 135.712 1214.48 136.324 1212.1 136.324C1210.18 136.324 1208.45 135.904 1206.92 135.064C1205.41 134.2 1204.22 132.988 1203.35 131.428C1202.51 129.868 1202.09 128.068 1202.09 126.028C1202.09 123.964 1202.51 122.152 1203.35 120.592C1204.19 119.032 1205.37 117.832 1206.88 116.992C1208.39 116.152 1210.13 115.732 1212.1 115.732C1214 115.732 1215.69 116.14 1217.18 116.956C1218.69 117.772 1219.85 118.936 1220.67 120.448C1221.51 121.936 1221.93 123.652 1221.93 125.596ZM1216.71 124.156C1216.69 122.86 1216.22 121.828 1215.31 121.06C1214.39 120.268 1213.28 119.872 1211.96 119.872C1210.71 119.872 1209.65 120.256 1208.79 121.024C1207.95 121.768 1207.43 122.812 1207.24 124.156H1216.71ZM1244.44 116.056V136H1239.36V133.48C1238.71 134.344 1237.86 135.028 1236.81 135.532C1235.77 136.012 1234.65 136.252 1233.42 136.252C1231.86 136.252 1230.48 135.928 1229.28 135.28C1228.08 134.608 1227.13 133.636 1226.44 132.364C1225.77 131.068 1225.43 129.532 1225.43 127.756V116.056H1230.47V127.036C1230.47 128.62 1230.87 129.844 1231.66 130.708C1232.45 131.548 1233.53 131.968 1234.9 131.968C1236.29 131.968 1237.38 131.548 1238.17 130.708C1238.97 129.844 1239.36 128.62 1239.36 127.036V116.056H1244.44ZM1269.04 115.768C1271.42 115.768 1273.34 116.524 1274.8 118.036C1276.26 119.524 1277 121.612 1277 124.3V136H1271.96V124.984C1271.96 123.4 1271.56 122.188 1270.77 121.348C1269.98 120.484 1268.9 120.052 1267.53 120.052C1266.14 120.052 1265.03 120.484 1264.22 121.348C1263.42 122.188 1263.03 123.4 1263.03 124.984V136H1257.99V116.056H1263.03V118.54C1263.7 117.676 1264.55 117.004 1265.58 116.524C1266.64 116.02 1267.79 115.768 1269.04 115.768ZM1290.64 136.324C1288.72 136.324 1287 135.904 1285.46 135.064C1283.92 134.2 1282.71 132.988 1281.82 131.428C1280.96 129.868 1280.53 128.068 1280.53 126.028C1280.53 123.988 1280.97 122.188 1281.86 120.628C1282.77 119.068 1284.01 117.868 1285.57 117.028C1287.13 116.164 1288.87 115.732 1290.79 115.732C1292.71 115.732 1294.45 116.164 1296.01 117.028C1297.57 117.868 1298.79 119.068 1299.68 120.628C1300.59 122.188 1301.05 123.988 1301.05 126.028C1301.05 128.068 1300.58 129.868 1299.64 131.428C1298.73 132.988 1297.48 134.2 1295.9 135.064C1294.34 135.904 1292.59 136.324 1290.64 136.324ZM1290.64 131.932C1291.56 131.932 1292.41 131.716 1293.2 131.284C1294.02 130.828 1294.66 130.156 1295.14 129.268C1295.62 128.38 1295.86 127.3 1295.86 126.028C1295.86 124.132 1295.36 122.68 1294.35 121.672C1293.37 120.64 1292.16 120.124 1290.72 120.124C1289.28 120.124 1288.06 120.64 1287.08 121.672C1286.12 122.68 1285.64 124.132 1285.64 126.028C1285.64 127.924 1286.11 129.388 1287.04 130.42C1288 131.428 1289.2 131.932 1290.64 131.932ZM1329.51 115.768C1331.96 115.768 1333.93 116.524 1335.42 118.036C1336.93 119.524 1337.69 121.612 1337.69 124.3V136H1332.65V124.984C1332.65 123.424 1332.25 122.236 1331.46 121.42C1330.67 120.58 1329.59 120.16 1328.22 120.16C1326.85 120.16 1325.76 120.58 1324.94 121.42C1324.15 122.236 1323.75 123.424 1323.75 124.984V136H1318.71V124.984C1318.71 123.424 1318.32 122.236 1317.53 121.42C1316.73 120.58 1315.65 120.16 1314.29 120.16C1312.89 120.16 1311.79 120.58 1310.97 121.42C1310.18 122.236 1309.79 123.424 1309.79 124.984V136H1304.75V116.056H1309.79V118.468C1310.43 117.628 1311.26 116.968 1312.27 116.488C1313.3 116.008 1314.43 115.768 1315.65 115.768C1317.21 115.768 1318.61 116.104 1319.83 116.776C1321.05 117.424 1322 118.36 1322.67 119.584C1323.32 118.432 1324.26 117.508 1325.48 116.812C1326.73 116.116 1328.07 115.768 1329.51 115.768ZM1361.01 125.596C1361.01 126.316 1360.96 126.964 1360.86 127.54H1346.28C1346.4 128.98 1346.91 130.108 1347.8 130.924C1348.68 131.74 1349.78 132.148 1351.07 132.148C1352.94 132.148 1354.28 131.344 1355.07 129.736H1360.5C1359.93 131.656 1358.82 133.24 1357.19 134.488C1355.56 135.712 1353.56 136.324 1351.18 136.324C1349.26 136.324 1347.53 135.904 1346 135.064C1344.48 134.2 1343.3 132.988 1342.43 131.428C1341.59 129.868 1341.17 128.068 1341.17 126.028C1341.17 123.964 1341.59 122.152 1342.43 120.592C1343.27 119.032 1344.45 117.832 1345.96 116.992C1347.47 116.152 1349.21 115.732 1351.18 115.732C1353.08 115.732 1354.77 116.14 1356.26 116.956C1357.77 117.772 1358.93 118.936 1359.75 120.448C1360.59 121.936 1361.01 123.652 1361.01 125.596ZM1355.79 124.156C1355.76 122.86 1355.3 121.828 1354.38 121.06C1353.47 120.268 1352.36 119.872 1351.04 119.872C1349.79 119.872 1348.73 120.256 1347.87 121.024C1347.03 121.768 1346.51 122.812 1346.32 124.156H1355.79ZM1391.81 125.596C1391.81 126.316 1391.76 126.964 1391.66 127.54H1377.08C1377.2 128.98 1377.71 130.108 1378.59 130.924C1379.48 131.74 1380.57 132.148 1381.87 132.148C1383.74 132.148 1385.07 131.344 1385.87 129.736H1391.3C1390.73 131.656 1389.62 133.24 1387.99 134.488C1386.36 135.712 1384.35 136.324 1381.98 136.324C1380.06 136.324 1378.33 135.904 1376.79 135.064C1375.28 134.2 1374.09 132.988 1373.23 131.428C1372.39 129.868 1371.97 128.068 1371.97 126.028C1371.97 123.964 1372.39 122.152 1373.23 120.592C1374.07 119.032 1375.25 117.832 1376.76 116.992C1378.27 116.152 1380.01 115.732 1381.98 115.732C1383.87 115.732 1385.57 116.14 1387.05 116.956C1388.57 117.772 1389.73 118.936 1390.55 120.448C1391.39 121.936 1391.81 123.652 1391.81 125.596ZM1386.59 124.156C1386.56 122.86 1386.09 121.828 1385.18 121.06C1384.27 120.268 1383.15 119.872 1381.83 119.872C1380.59 119.872 1379.53 120.256 1378.67 121.024C1377.83 121.768 1377.31 122.812 1377.12 124.156H1386.59ZM1385.83 110.8L1377.55 114.58V110.98L1385.83 106.696V110.8Z" fill="#8B5CF6"/>
</svg>
