<svg width="1440" height="762" viewBox="0 0 1440 762" fill="none" xmlns="http://www.w3.org/2000/svg">
<path fill-rule="evenodd" clip-rule="evenodd" d="M0 593.009L40 546.211C80 499.413 160 405.818 240 387.619C320 369.42 400 425.317 480 434.417C560 443.516 640 405.818 720 425.317C800 443.516 880 518.912 960 574.809C1040 630.707 1120 668.405 1200 677.504C1280 686.604 1360 668.405 1400 659.305L1440 650.206V762H1400C1360 762 1280 762 1200 762C1120 762 1040 762 960 762C880 762 800 762 720 762C640 762 560 762 480 762C400 762 320 762 240 762C160 762 80 762 40 762H0V593.009Z" fill="#5B21B6"/>
</svg>
