<svg width="1440" height="762" viewBox="0 0 1440 762" fill="none" xmlns="http://www.w3.org/2000/svg">
<path fill-rule="evenodd" clip-rule="evenodd" d="M0 398.823L27 389.202C53 380.784 107 363.948 160 398.823C213 432.495 267 519.08 320 553.955C373 588.829 427 571.993 480 580.411C533 588.829 587 623.704 640 640.54C693 658.579 747 658.579 800 588.829C853 519.08 907 380.784 960 337.491C1013 294.199 1067 345.909 1120 380.784C1173 415.659 1227 432.495 1280 424.077C1333 415.659 1387 380.784 1413 363.948L1440 345.909V762H1413C1387 762 1333 762 1280 762C1227 762 1173 762 1120 762C1067 762 1013 762 960 762C907 762 853 762 800 762C747 762 693 762 640 762C587 762 533 762 480 762C427 762 373 762 320 762C267 762 213 762 160 762C107 762 53 762 27 762H0V398.823Z" fill="#27272A"/>
</svg>
